<svg width="95" height="30" viewBox="0 0 95 30" fill="none" xmlns="http://www.w3.org/2000/svg">
<path d="M0.119878 12V0.799999H5.23988C6.26388 0.799999 7.14388 0.965333 7.87988 1.296C8.62654 1.62667 9.20254 2.10667 9.60788 2.736C10.0132 3.35467 10.2159 4.09067 10.2159 4.944C10.2159 5.78667 10.0132 6.51733 9.60788 7.136C9.20254 7.75467 8.62654 8.23467 7.87988 8.576C7.14388 8.90667 6.26388 9.072 5.23988 9.072H1.87988L3.28788 7.696V12H0.119878ZM3.28788 8.032L1.87988 6.576H5.04788C5.70921 6.576 6.19988 6.432 6.51988 6.144C6.85055 5.856 7.01588 5.456 7.01588 4.944C7.01588 4.42133 6.85055 4.016 6.51988 3.728C6.19988 3.44 5.70921 3.296 5.04788 3.296H1.87988L3.28788 1.84V8.032ZM9.854 12L14.798 0.799999H17.918L22.878 12H19.582L15.71 2.352H16.958L13.086 12H9.854ZM12.558 9.824L13.374 7.488H18.846L19.662 9.824H12.558ZM23.7761 12V0.799999H28.8961C29.9201 0.799999 30.8001 0.965333 31.5361 1.296C32.2828 1.62667 32.8588 2.10667 33.2641 2.736C33.6695 3.35467 33.8721 4.09067 33.8721 4.944C33.8721 5.78667 33.6695 6.51733 33.2641 7.136C32.8588 7.744 32.2828 8.21333 31.5361 8.544C30.8001 8.864 29.9201 9.024 28.8961 9.024H25.5361L26.9441 7.696V12H23.7761ZM30.7041 12L27.9201 7.92H31.2961L34.0961 12H30.7041ZM26.9441 8.032L25.5361 6.576H28.7041C29.3655 6.576 29.8561 6.432 30.1761 6.144C30.5068 5.856 30.6721 5.456 30.6721 4.944C30.6721 4.42133 30.5068 4.016 30.1761 3.728C29.8561 3.44 29.3655 3.296 28.7041 3.296H25.5361L26.9441 1.84V8.032ZM34.2759 12L39.2199 0.799999H42.3399L47.2999 12H44.0039L40.1319 2.352H41.3799L37.5079 12H34.2759ZM36.9799 9.824L37.7959 7.488H43.2679L44.0839 9.824H36.9799ZM48.198 12V0.799999H53.494C54.7313 0.799999 55.8193 1.02933 56.758 1.488C57.6967 1.94667 58.4273 2.592 58.95 3.424C59.4833 4.256 59.75 5.248 59.75 6.4C59.75 7.54133 59.4833 8.53333 58.95 9.376C58.4273 10.208 57.6967 10.8533 56.758 11.312C55.8193 11.7707 54.7313 12 53.494 12H48.198ZM51.366 9.472H53.366C54.006 9.472 54.5607 9.35467 55.03 9.12C55.51 8.87467 55.8833 8.52267 56.15 8.064C56.4167 7.59467 56.55 7.04 56.55 6.4C56.55 5.74933 56.4167 5.19467 56.15 4.736C55.8833 4.27733 55.51 3.93067 55.03 3.696C54.5607 3.45067 54.006 3.328 53.366 3.328H51.366V9.472ZM61.4168 12V0.799999H64.5848V12H61.4168ZM70.7746 12.224C69.8573 12.224 68.972 12.112 68.1186 11.888C67.276 11.6533 66.588 11.3547 66.0546 10.992L67.0946 8.656C67.596 8.976 68.172 9.24267 68.8226 9.456C69.484 9.65867 70.14 9.76 70.7906 9.76C71.228 9.76 71.58 9.72267 71.8466 9.648C72.1133 9.56267 72.3053 9.456 72.4226 9.328C72.5506 9.18933 72.6146 9.02933 72.6146 8.848C72.6146 8.592 72.4973 8.38933 72.2626 8.24C72.028 8.09067 71.724 7.968 71.3506 7.872C70.9773 7.776 70.5613 7.68 70.1026 7.584C69.6546 7.488 69.2013 7.36533 68.7426 7.216C68.2946 7.06667 67.884 6.87467 67.5106 6.64C67.1373 6.39467 66.8333 6.08 66.5986 5.696C66.364 5.30133 66.2466 4.80533 66.2466 4.208C66.2466 3.536 66.428 2.928 66.7906 2.384C67.164 1.84 67.7186 1.40267 68.4546 1.072C69.1906 0.741333 70.108 0.575999 71.2066 0.575999C71.9426 0.575999 72.6626 0.661333 73.3666 0.832C74.0813 0.992 74.716 1.232 75.2706 1.552L74.2946 3.904C73.7613 3.616 73.2333 3.40267 72.7106 3.264C72.188 3.11467 71.6813 3.04 71.1906 3.04C70.7533 3.04 70.4013 3.088 70.1346 3.184C69.868 3.26933 69.676 3.38667 69.5586 3.536C69.4413 3.68533 69.3826 3.856 69.3826 4.048C69.3826 4.29333 69.4946 4.49067 69.7186 4.64C69.9533 4.77867 70.2573 4.896 70.6306 4.992C71.0146 5.07733 71.4306 5.168 71.8786 5.264C72.3373 5.36 72.7906 5.48267 73.2386 5.632C73.6973 5.77067 74.1133 5.96267 74.4866 6.208C74.86 6.44267 75.1586 6.75733 75.3826 7.152C75.6173 7.536 75.7346 8.02133 75.7346 8.608C75.7346 9.25867 75.548 9.86133 75.1746 10.416C74.812 10.96 74.2626 11.3973 73.5266 11.728C72.8013 12.0587 71.884 12.224 70.7746 12.224ZM80.11 5.136H85.31V7.504H80.11V5.136ZM80.334 9.552H86.19V12H77.198V0.799999H85.982V3.248H80.334V9.552ZM0.119878 29V17.8H5.23988C6.26388 17.8 7.14388 17.9653 7.87988 18.296C8.62654 18.6267 9.20254 19.1067 9.60788 19.736C10.0132 20.3547 10.2159 21.0907 10.2159 21.944C10.2159 22.7867 10.0132 23.5173 9.60788 24.136C9.20254 24.7547 8.62654 25.2347 7.87988 25.576C7.14388 25.9067 6.26388 26.072 5.23988 26.072H1.87988L3.28788 24.696V29H0.119878ZM3.28788 25.032L1.87988 23.576H5.04788C5.70921 23.576 6.19988 23.432 6.51988 23.144C6.85055 22.856 7.01588 22.456 7.01588 21.944C7.01588 21.4213 6.85055 21.016 6.51988 20.728C6.19988 20.44 5.70921 20.296 5.04788 20.296H1.87988L3.28788 18.84V25.032ZM11.7605 29V17.8H16.8805C17.9045 17.8 18.7845 17.9653 19.5205 18.296C20.2672 18.6267 20.8432 19.1067 21.2485 19.736C21.6538 20.3547 21.8565 21.0907 21.8565 21.944C21.8565 22.7867 21.6538 23.5173 21.2485 24.136C20.8432 24.744 20.2672 25.2133 19.5205 25.544C18.7845 25.864 17.9045 26.024 16.8805 26.024H13.5205L14.9285 24.696V29H11.7605ZM18.6885 29L15.9045 24.92H19.2805L22.0805 29H18.6885ZM14.9285 25.032L13.5205 23.576H16.6885C17.3498 23.576 17.8405 23.432 18.1605 23.144C18.4912 22.856 18.6565 22.456 18.6565 21.944C18.6565 21.4213 18.4912 21.016 18.1605 20.728C17.8405 20.44 17.3498 20.296 16.6885 20.296H13.5205L14.9285 18.84V25.032ZM29.2523 29.224C28.3563 29.224 27.5296 29.08 26.7723 28.792C26.0149 28.504 25.3536 28.0987 24.7883 27.576C24.2336 27.0427 23.8016 26.424 23.4923 25.72C23.1829 25.016 23.0283 24.2427 23.0283 23.4C23.0283 22.5573 23.1829 21.784 23.4923 21.08C23.8016 20.376 24.2336 19.7627 24.7883 19.24C25.3536 18.7067 26.0149 18.296 26.7723 18.008C27.5296 17.72 28.3563 17.576 29.2523 17.576C30.1589 17.576 30.9856 17.72 31.7323 18.008C32.4896 18.296 33.1456 18.7067 33.7003 19.24C34.2549 19.7627 34.6869 20.376 34.9963 21.08C35.3163 21.784 35.4763 22.5573 35.4763 23.4C35.4763 24.2427 35.3163 25.0213 34.9963 25.736C34.6869 26.44 34.2549 27.0533 33.7003 27.576C33.1456 28.0987 32.4896 28.504 31.7323 28.792C30.9856 29.08 30.1589 29.224 29.2523 29.224ZM29.2523 26.6C29.6789 26.6 30.0736 26.5253 30.4363 26.376C30.8096 26.2267 31.1296 26.0133 31.3963 25.736C31.6736 25.448 31.8869 25.1067 32.0363 24.712C32.1963 24.3173 32.2763 23.88 32.2763 23.4C32.2763 22.9093 32.1963 22.472 32.0363 22.088C31.8869 21.6933 31.6736 21.3573 31.3963 21.08C31.1296 20.792 30.8096 20.5733 30.4363 20.424C30.0736 20.2747 29.6789 20.2 29.2523 20.2C28.8256 20.2 28.4256 20.2747 28.0523 20.424C27.6896 20.5733 27.3696 20.792 27.0923 21.08C26.8256 21.3573 26.6123 21.6933 26.4523 22.088C26.3029 22.472 26.2283 22.9093 26.2283 23.4C26.2283 23.88 26.3029 24.3173 26.4523 24.712C26.6123 25.1067 26.8256 25.448 27.0923 25.736C27.3696 26.0133 27.6896 26.2267 28.0523 26.376C28.4256 26.5253 28.8256 26.6 29.2523 26.6ZM37.1355 29V17.8H42.8635C44.3355 17.8 45.4342 18.072 46.1595 18.616C46.8848 19.1493 47.2475 19.8533 47.2475 20.728C47.2475 21.304 47.0928 21.8107 46.7835 22.248C46.4848 22.6747 46.0582 23.016 45.5035 23.272C44.9595 23.5173 44.3088 23.64 43.5515 23.64L43.8715 22.872C44.6608 22.872 45.3488 22.9947 45.9355 23.24C46.5222 23.4747 46.9755 23.8213 47.2955 24.28C47.6262 24.728 47.7915 25.2773 47.7915 25.928C47.7915 26.8987 47.3968 27.656 46.6075 28.2C45.8288 28.7333 44.6875 29 43.1835 29H37.1355ZM40.2715 26.712H42.9275C43.4715 26.712 43.8822 26.6213 44.1595 26.44C44.4475 26.248 44.5915 25.96 44.5915 25.576C44.5915 25.192 44.4475 24.9093 44.1595 24.728C43.8822 24.536 43.4715 24.44 42.9275 24.44H40.0475V22.248H42.4475C42.9808 22.248 43.3808 22.1573 43.6475 21.976C43.9142 21.7947 44.0475 21.5227 44.0475 21.16C44.0475 20.7973 43.9142 20.5307 43.6475 20.36C43.3808 20.1787 42.9808 20.088 42.4475 20.088H40.2715V26.712ZM49.4324 29V17.8H52.6004V26.488H57.9444V29H49.4324ZM62.11 22.136H67.31V24.504H62.11V22.136ZM62.334 26.552H68.19V29H59.198V17.8H67.982V20.248H62.334V26.552ZM69.948 29V17.8H72.556L77.196 25.416H75.82L80.332 17.8H82.94L82.972 29H80.06L80.028 22.232H80.524L77.148 27.896H75.74L72.268 22.232H72.876V29H69.948ZM89.1496 29.224C88.2323 29.224 87.347 29.112 86.4936 28.888C85.651 28.6533 84.963 28.3547 84.4296 27.992L85.4696 25.656C85.971 25.976 86.547 26.2427 87.1976 26.456C87.859 26.6587 88.515 26.76 89.1656 26.76C89.603 26.76 89.955 26.7227 90.2216 26.648C90.4883 26.5627 90.6803 26.456 90.7976 26.328C90.9256 26.1893 90.9896 26.0293 90.9896 25.848C90.9896 25.592 90.8723 25.3893 90.6376 25.24C90.403 25.0907 90.099 24.968 89.7256 24.872C89.3523 24.776 88.9363 24.68 88.4776 24.584C88.0296 24.488 87.5763 24.3653 87.1176 24.216C86.6696 24.0667 86.259 23.8747 85.8856 23.64C85.5123 23.3947 85.2083 23.08 84.9736 22.696C84.739 22.3013 84.6216 21.8053 84.6216 21.208C84.6216 20.536 84.803 19.928 85.1656 19.384C85.539 18.84 86.0936 18.4027 86.8296 18.072C87.5656 17.7413 88.483 17.576 89.5816 17.576C90.3176 17.576 91.0376 17.6613 91.7416 17.832C92.4563 17.992 93.091 18.232 93.6456 18.552L92.6696 20.904C92.1363 20.616 91.6083 20.4027 91.0856 20.264C90.563 20.1147 90.0563 20.04 89.5656 20.04C89.1283 20.04 88.7763 20.088 88.5096 20.184C88.243 20.2693 88.051 20.3867 87.9336 20.536C87.8163 20.6853 87.7576 20.856 87.7576 21.048C87.7576 21.2933 87.8696 21.4907 88.0936 21.64C88.3283 21.7787 88.6323 21.896 89.0056 21.992C89.3896 22.0773 89.8056 22.168 90.2536 22.264C90.7123 22.36 91.1656 22.4827 91.6136 22.632C92.0723 22.7707 92.4883 22.9627 92.8616 23.208C93.235 23.4427 93.5336 23.7573 93.7576 24.152C93.9923 24.536 94.1096 25.0213 94.1096 25.608C94.1096 26.2587 93.923 26.8613 93.5496 27.416C93.187 27.96 92.6376 28.3973 91.9016 28.728C91.1763 29.0587 90.259 29.224 89.1496 29.224Z" fill="white"/>
</svg>
